<?xml version="1.0" encoding="UTF-8"?>
<svg xmlns="http://www.w3.org/2000/svg" viewBox="0 0 758.81 655">
  <defs>
    <style>
      .cls-1, .cls-2 {
        fill: #fff;
      }

      .cls-3 {
        opacity: .3;
      }

      .cls-3, .cls-4, .cls-2, .cls-5 {
        mix-blend-mode: multiply;
      }

      .cls-3, .cls-5, .cls-6 {
        fill: #cf321d;
      }

      .cls-4 {
        opacity: .4;
      }

      .cls-4, .cls-7, .cls-8 {
        fill: #ce3527;
      }

      .cls-2, .cls-5 {
        opacity: .2;
      }

      .cls-9 {
        fill: #1c1920;
      }

      .cls-9, .cls-7 {
        mix-blend-mode: screen;
        opacity: .5;
      }

      .cls-10 {
        isolation: isolate;
      }
    </style>
  </defs>
  <g class="cls-10">
    <g id="Layer_2">
      <g id="Layer_1-2" data-name="Layer_1">
        <g>
          <g>
            <g>
              <path class="cls-1" d="M749.5,134.47c-38.95-38.4-76.06-74.71-111.34-109.66-43.23,4.8-86.45,12.22-129.68,20.93,34.03,31.92,69.98,64.46,107.85,98.32,44.39-5.85,88.78-9.47,133.17-9.59Z"/>
              <g>
                <path class="cls-1" d="M215.57,239.3c33.39,36.82,50.9,89.32,95.35,121.19-24.89,30.52-36.85,101.72-77.52,86.11-42.93-17.91-63.08-63.11-90.21-99.95,39.43-25.51,70.53-64.19,72.37-107.35,0,0,0,0,0,0Z"/>
                <path class="cls-2" d="M229.54,437.43c-1.53-35.71-11-120.07,32.71-113.12,36.23,3.11,58.57,46.87,90.14,70.24,5.69,5.63,5.91,14.01,2.29,21.47-3.61,7.45-11.08,13.98-20.57,15.89-28.42,6.23-56.36,11.71-83.16,16.75-10.78,1.99-19.71-2.89-21.41-11.23Z"/>
              </g>
              <g>
                <path class="cls-1" d="M306.98,90.88c79.52,97.73,174.55,191.24,285.1,292.15-49.73,7.32-99.46,16.67-149.19,26.61.04,0-21.03-19.13-49.13-46.16-4.01-3.86-8.17-7.89-12.46-12.01-53.4-63.26-162.43-115.06-134.32-210.44,2.59-5.54,5.2-11.06,8.27-17.61,3.07-6.55,6.59-14.13,11.01-23.75,13.57-2.83,27.15-5.77,40.72-8.79Z"/>
                <path class="cls-1" d="M256.02,213.7c46.01,29.86,99.35,58.09,156.95,82.34,5.3,2.6,10.63,5.21,15.97,7.81,79.69,38.51,163.1,78.54,163.11,78.83-45.66,6.84-91.33,15.39-137.01,24.55.03,0-19.34-16.59-45.37-39.98-3.72-3.34-7.57-6.82-11.56-10.38-58.06-39.51-92.3-94.27-137.55-138.5-2.96-3.03-4.54-4.67-4.54-4.67Z"/>
                <path class="cls-1" d="M306.98,90.88s14.28,40.94,35.27,93.27c2.1,5.23,4.26,10.58,6.48,16.02,14.13,31.79,26.78,67.45,43.56,100.77,2.48,5.39,4.94,10.72,7.36,15.93,24.17,52.11,45.05,92.62,45.01,92.63,49.14-10.02,98.27-19.44,147.38-26.88-110.52-100.76-205.54-194.14-285.06-291.73Z"/>
              </g>
              <g>
                <path class="cls-8" d="M508.48,45.74c.02-.12-49.4,87.46-112.93,182.8-4.21,6.34-8.46,12.71-12.75,19.09-43.01,71.29-85,141.7-149.74,204.13,30.72-5.42,64.25-11.94,93.86-18.65,6.03-1.21,11.91-2.39,17.43-3.5,22.1-4.47,38.68-7.85,38.68-7.85,100.79-136.81,185.83-271.82,255.12-396.94-43.23,4.8-86.45,12.22-129.68,20.93Z"/>
                <path class="cls-4" d="M638.81,24.74c-.31.19-27.76,32.62-71.74,82.51-43.74,49.59-104.02,116.63-164.32,178.96-5.7,5.92-11.41,11.81-17.12,17.75-46.8,50.94-94.49,104.42-152.57,147.79,30.72-5.42,64.25-11.94,93.87-18.8,6.03-1.19,11.9-2.35,17.43-3.45,22.1-4.4,38.68-7.74,38.68-7.74,101.05-136.86,186.3-271.92,255.77-397.01Z"/>
                <path class="cls-7" d="M508.48,45.74c-34.54,124.3-76.94,250.16-127.2,376.58,0,0-16.39,3.27-38.23,7.59-5.46,1.08-11.26,2.22-17.22,3.39-31.31,7.06-62.05,13.02-92.77,18.45,62.02-61.9,106.81-135.39,149.74-204.33,4.29-6.37,8.55-12.73,12.75-19.07,63.52-95.24,112.95-182.72,112.93-182.61Z"/>
              </g>
              <g>
                <path class="cls-6" d="M616.38,144.05c-50.83,85.39-108.68,174.79-173.53,265.8,49.55-9.86,99.09-19.13,148.64-26.4,59.67-87.34,112.34-170.86,157.99-248.99-44.37.12-88.74,3.73-133.11,9.58Z"/>
                <g>
                  <path class="cls-3" d="M716.3,133.77c-80.1,82.4-171.23,178.07-273.4,277.54,64.88-91.5,122.71-181.38,173.49-267.26,33.33-4.87,66.64-8.47,99.92-10.28Z"/>
                  <path class="cls-5" d="M591.49,383.46c10.08-80.53,18.32-160.81,24.72-240.86-50.73,85.88-108.52,175.76-173.35,267.26,49.55-9.86,99.09-19.13,148.64-26.4Z"/>
                </g>
              </g>
              <path class="cls-1" d="M155.66,249.94c-5.36,32.59-45.24,9.76-59.16,20.99-11.69,11.16-1.56,48.48-29.59,56.21-10.36.74-17.45-7.1-15.82-17.27,2.03-12.81,4.07-25.61,6.1-38.42-11.65.68-23.3,1.15-34.96,1.39-10.08.21-16.73-8.05-14.83-18.18.95-5.09,3.81-9.68,7.68-13.02,3.84-3.37,8.69-5.49,13.64-5.61,11.44-.28,22.88-.77,34.32-1.47,1.71-10.76,3.42-21.52,5.13-32.27,1.63-10.17,10.77-18.93,20.38-19.74,4.83-.4,8.88,1.26,11.56,4.32,2.7,3.02,4.02,7.44,3.3,12.56,0,0-1.14,8.08-2.25,16.18,0,4.19-3.92,14.7-1.44,14.46,13.94,6.33,37.92-9.21,49.68,5.33,3.69,3.66,6.14,8.83,6.26,14.54Z"/>
              <path class="cls-1" d="M182.58,168.42c1.15,7.67-2.04,15.79-7.48,21.7-10.88,11.81-20.52,10.66-29.71,6.83-6.75-4.15-16.52-2.96-12.82-21.99.92-7.23,4.51-14.11,9.51-19.43,5.01-5.32,11.44-9.08,18.16-10.05,6.72-.98,12.48,1.02,16.44,5.09,3.96,4.07,6.22,10.29,5.88,17.86Z"/>
              <path class="cls-9" d="M105.81,114.08c11.38,8.6,22.95,16.97,34.73,25.13,5.47-10.4,4.97-20.02-1.21-28.9-9.88-8.65-20.88-7.38-33.52,3.77Z"/>
              <path class="cls-1" d="M144.12,128.01c-1.76,14.46-14.15,27.64-27.68,29.1-13.53,1.47-22.71-9.35-20.51-23.78,2.2-14.44,14.59-27.07,27.68-28.57,13.09-1.49,22.27,8.77,20.51,23.24Z"/>
            </g>
            <g>
              <path class="cls-1" d="M232,481.67l40.22-1.66v107.79c0,13.72-1.11,24.57-3.32,32.56-2.23,8.02-6.86,14.87-13.94,20.58-7.16,5.77-17.91,9.88-32.42,12.32-6.39,1.07-15.07,1.66-26.15,1.75v-31.6c6.96.17,12.75-.08,17.4-.75,7.44-1.07,12.31-3.52,14.68-7.35,2.36-3.81,3.53-11.31,3.53-22.51v-111.12Z"/>
              <path class="cls-1" d="M438.71,503.95l-25.07,11.79c-3.66-11.7-10.42-17.28-20.4-16.66-4.73.29-8.5,1.88-11.29,4.78-2.81,2.91-4.21,6.2-4.21,9.84,0,4.23,1.66,7.47,4.98,9.71,3.29,2.23,10.13,4.91,20.39,8.02,9.18,2.64,16.3,5.39,21.43,8.26,5.08,2.85,9.15,6.96,12.24,12.35,3.07,5.36,4.6,11.79,4.6,19.31,0,13.18-4.33,24.64-13.09,34.5-8.9,10.01-21.05,16.36-36.64,18.98-27.14,4.56-45.14-6.44-53.13-33.41l29.95-12.27c3.56,14.64,11.6,21.01,23.94,19.21,5.55-.81,10-2.9,13.4-6.27,3.38-3.35,5.06-7.36,5.06-12.04,0-3.54-1.18-6.56-3.54-9.08-2.37-2.52-7.85-4.84-16.53-6.98-11.35-2.75-19.96-5.5-25.68-8.22-5.79-2.75-10.6-7.07-14.41-12.99-3.84-5.95-5.77-12.99-5.77-21.07,0-13.78,4.56-25.33,13.59-34.55,8.89-9.08,20.45-13.86,34.53-14.41,24.86-.98,39.85,9.49,45.68,31.19Z"/>
              <path class="cls-1" d="M477.58,471.53l29.65-1.22,16.55,47.07,17.15-48.46,23.44-.97-30.54,76.16v54.84l-25.51,4.24v-56.19l-30.75-75.47Z"/>
              <path class="cls-1" d="M598.67,466.53l27.86-1.15c8.15-.34,14.37.26,18.73,1.77,4.32,1.5,7.93,5.13,10.82,10.89,2.88,5.72,4.31,12.9,4.31,21.59s-1.15,15.36-3.47,21.06c-2.33,5.73-5.57,10.06-9.75,12.99-4.21,2.96-10.77,4.97-19.75,6.05l-7.34.88v44.02l-21.41,3.56v-121.65ZM620.09,484.91v35.3l6.45-.64c5.61-.55,9.19-2.54,10.79-5.95,1.59-3.4,2.38-7.7,2.38-12.89,0-4.39-.61-7.9-1.84-10.53-1.23-2.64-2.67-4.29-4.32-4.96-1.65-.67-3.99-.92-7.01-.73l-6.45.4Z"/>
            </g>
          </g>
          <g>
            <path class="cls-1" d="M521.52,348.29l-14.58-1.54c5.72-16.55,15.65-25.18,29.38-25.97,7.19-.41,12.16,1.28,15.01,5.03,2.82,3.71,3.65,8.41,2.54,14.11-1.15,5.87-4.26,11.83-9.38,17.93-5.18,6.18-14.3,13.89-27.65,23.33l30.74-4.46-3.78,13.84-46.96,7.78,2.87-14.67c16.31-13.56,26.34-22.68,30.55-27.74,4.17-5.01,6.65-9.58,7.46-13.74,1.17-5.95-.46-8.76-4.93-8.41-2.72.21-4.95,1.56-6.69,4.05-1.74,2.5-3.27,5.99-4.57,10.47Z"/>
            <path class="cls-1" d="M586.47,317.87l14.23-.82-7.79,39.75,6.54-.8-2.16,11.01-6.56.93-3.01,15.34-13.36,2.21,3.07-15.67-23.07,3.25,2.31-11.8,29.79-43.39ZM580.59,359.08l5.37-27.39-19.31,29.13,13.94-1.73Z"/>
          </g>
        </g>
      </g>
    </g>
  </g>
</svg>